inDegrees=no
num_controls=7
num_derivatives=13
num_iterations=68
num_multipliers=7
num_parameters=0
num_slacks=7
num_states=26
objective=0.333968
objective_accelerations=0.036843
objective_balance=0.001344
objective_effort=0.027088
objective_height=0.267218
objective_ligament=0.001475
solver_duration=709.974825
status=Solve_Succeeded
success=true
DataType=double
version=3
OpenSimVersion=4.5
endheader
time	/jointset/ground_pelvis/pelvis_tilt/value	/jointset/ground_pelvis/pelvis_tx/value	/jointset/ground_pelvis/pelvis_ty/value	/jointset/hip_r/hip_flexion_r/value	/jointset/hip_r/hip_adduction_r/value	/jointset/hip_r/hip_rotation_r/value	/jointset/back/lumbar_extension/value	/jointset/patellofemoral_r/patellar_flexion_r/value	/jointset/knee_r/knee_flexion_r/value	/jointset/knee_r/knee_adduction_r/value	/jointset/knee_r/knee_rotation_r/value	/jointset/ankle_r/ankle_angle_r/value	/jointset/subtalar_r/subtalar_angle_r/value	/jointset/ground_pelvis/pelvis_tilt/speed	/jointset/ground_pelvis/pelvis_tx/speed	/jointset/ground_pelvis/pelvis_ty/speed	/jointset/hip_r/hip_flexion_r/speed	/jointset/hip_r/hip_adduction_r/speed	/jointset/hip_r/hip_rotation_r/speed	/jointset/back/lumbar_extension/speed	/jointset/patellofemoral_r/patellar_flexion_r/speed	/jointset/knee_r/knee_flexion_r/speed	/jointset/knee_r/knee_adduction_r/speed	/jointset/knee_r/knee_rotation_r/speed	/jointset/ankle_r/ankle_angle_r/speed	/jointset/subtalar_r/subtalar_angle_r/speed	/forceset/tau_hip_flexion_r	/forceset/tau_hip_adduction_r	/forceset/tau_hip_rotation_r	/forceset/tau_knee_flexion_r	/forceset/tau_ankle_angle_r	/forceset/tau_subtalar_angle_r	/forceset/tau_lumbar_extension	lambda_cid13_p0	lambda_cid14_p0	lambda_cid14_p1	lambda_cid14_p2	lambda_cid14_p3	lambda_cid14_p4	lambda_cid14_p5	/jointset/ground_pelvis/pelvis_tilt/accel	/jointset/ground_pelvis/pelvis_tx/accel	/jointset/ground_pelvis/pelvis_ty/accel	/jointset/hip_r/hip_flexion_r/accel	/jointset/hip_r/hip_adduction_r/accel	/jointset/hip_r/hip_rotation_r/accel	/jointset/back/lumbar_extension/accel	/jointset/patellofemoral_r/patellar_flexion_r/accel	/jointset/knee_r/knee_flexion_r/accel	/jointset/knee_r/knee_adduction_r/accel	/jointset/knee_r/knee_rotation_r/accel	/jointset/ankle_r/ankle_angle_r/accel	/jointset/subtalar_r/subtalar_angle_r/accel	gamma_cid13_p0	gamma_cid14_p0	gamma_cid14_p1	gamma_cid14_p2	gamma_cid14_p3	gamma_cid14_p4	gamma_cid14_p5
1	-0.2781804547279109	-0.008722615023355137	0.6326053336483102	1.4672143170593	-0.2378127338059775	-0.08821982505009403	-0.785397309877391	1.505763339948159	1.505763339948159	-0.1745325279411515	0.1731992646314736	0.4362316424119301	0.1767308582054575	0.07213363773533098	0.00656708591263365	0.01639768063905128	-0.1057570333793261	-0.001331848140736585	-0.003107517834026339	0.0002136217895958869	-0.01841628201019355	-0.01841628201019354	0.003561976034285015	5.012426438327649e-05	0.01523372837728986	0.005431731895800383	-0.3635156295627013	0.05081412897893491	0.007557420998495361	-0.4334826625844308	-0.04555023352832305	-0.0007917094118763482	0.3745925926307515	-0.04111871602204755	-67.21733522695415	-17.0985404465136	8.842471684349499	8.526197168307771	-774.5352288245132	51.53955752080821	1.432823074504628	0.1659104915904404	1.888396973283271	-5.735967164589439	0.219582610555443	-0.2789366321131584	0.0190162027916662	-5.146216182428434	-5.146216182428434	1.10175718250389	0.03236139427229367	-1.043805125393725	-0.1177051006920927	2.991608223152993e-09	6.962731038660641e-09	2.278781328819004e-08	2.319530869171944e-08	-7.690988721162622e-09	-3.439036212675962e-09	4.729514689072342e-08
1.01	-0.2773885588907941	-0.008648501510970663	0.632863405858653	1.465871446574804	-0.2378151916785907	-0.08826256586330151	-0.7853915399108414	1.505322788534796	1.505322788534794	-0.1744396087370879	0.1732011492645566	0.4363320888361198	0.1767791612102321	0.08620467097722968	0.008274206395413831	0.0351971641234698	-0.1627588020765896	0.0008364119449584095	-0.005476042540972103	0.00113166944706036	-0.06964624477882696	-0.06964624477882696	0.01497381076304861	0.0003265228967696406	0.00489199975214468	0.004240940807112892	-0.3641392895283562	0.05080714316256289	0.007563725503890777	-0.4329811948117367	-0.04600545840533988	-0.0007214152103602381	0.3754774036585253	-0.04110792832520023	-67.35662630975996	-17.07562983754233	8.819663158505376	8.335259271465695	-774.7019990087878	51.53352507185431	1.38811757982391	0.1758987297212629	1.872782377207449	-5.673539622688777	0.2148783721807712	-0.2211136496131076	0.1568937358536318	-5.104224927145231	-5.104224927145224	1.153686618427887	0.02525818000723023	-1.023889697713155	-0.1179367227009748	9.858780278710323e-09	1.725265224675141e-08	6.010390796868022e-08	7.820476938547592e-08	-1.280638293042361e-08	-1.02457991990369e-08	1.365073337366842e-07
1.02	-0.2764571778950997	-0.008556759613138459	0.6333088845720772	1.463960306823259	-0.2377960808174255	-0.0883300525755062	-0.7853708505299751	1.504371369773133	1.50437136977313	-0.1742340131856631	0.1732057937004192	0.4363302113807815	0.1768159221821711	0.1000306694507853	0.01009276300217942	0.05387898125534087	-0.2194108867896118	0.00298189861482384	-0.008056697633030978	0.003197504649715498	-0.1205897516700379	-0.1205897516700378	0.02609724550642394	0.0006020848205727234	-0.00523104753852986	0.003123325328669714	-0.3647629494940075	0.0508001573461886	0.007570030009299356	-0.4324797270390414	-0.04646068328235819	-0.0006511210088494608	0.376362214686302	-0.04110360898228297	-67.50305161503836	-17.04767927551319	8.788867015107577	8.141813832404456	-774.9945367708779	51.56961064245674	1.383816120835994	0.1881977163875365	1.864863702773783	-5.666030367741188	0.2150279273895265	-0.3213627091357816	0.2485737118297494	-5.088925006943926	-5.088925006943911	1.044077185426238	0.03219405255563869	-1.000068858499571	-0.1030699786432235	1.518431004590338e-08	2.409401172597382e-08	8.776927174408753e-08	1.168040875183745e-07	-1.53082057619351e-08	-1.832145735017221e-08	2.022158448806079e-07
1.03	-0.2753887722137651	-0.008446341038817494	0.6339406497892687	1.461484348937236	-0.2377555932438735	-0.08842430731493776	-0.7853242504057857	1.502911564085415	1.502911564085413	-0.1739184316126995	0.1732131557723619	0.4362278223918823	0.1768417455221364	0.1136068265582086	0.01200297570106636	0.0724599187172924	-0.2757250783117453	0.005114668511918598	-0.01081175501644681	0.006267627492215909	-0.1713612565208629	-0.1713612565208629	0.0369993716882517	0.0008672840920951871	-0.01524801073644939	0.002039095060512197	-0.3648510964680343	0.05082900603764261	0.007677525776340557	-0.432117638138696	-0.0466884876753735	-0.0006463365988202496	0.3767932295434435	-0.04112110552968478	-67.57639407996199	-17.04338470332393	8.77098220202161	8.053846530579566	-775.0995841162818	51.58467535914298	1.337975520249965	0.1942330508452713	1.852581917026382	-5.605765990022843	0.2122791989242661	-0.2551898626634002	0.3579976660068045	-5.069747952238408	-5.069747952238418	1.110321640169753	0.02326751011841396	-1.00269841660216	-0.1114002377890413	2.049410876933762e-08	3.09001817997996e-08	1.153361586735245e-07	1.552359552169786e-07	-1.778335949775526e-08	-2.641006341115215e-08	2.676845225990005e-07
1.04	-0.2741859129584452	-0.008316460336666432	0.6347577990109037	1.458446918646878	-0.2376938024357392	-0.08854663515014738	-0.7852425958340599	1.500944346403571	1.500944346403568	-0.1734944205167932	0.173223086766154	0.4360252260977694	0.1768566664220427	0.1269213842478101	0.01398518856819857	0.0909557821440663	-0.3317053676568156	0.007242545531205192	-0.01367131678861878	0.01020839415658061	-0.2220721504951527	-0.2220721504951528	0.04778315009442714	0.001115869190332011	-0.02527250858092941	0.0009428373168739585	-0.3649392434420581	0.05085785472909893	0.00778502154336711	-0.4317555492383521	-0.04691629206838875	-0.0006415521887862842	0.3772242444005877	-0.04114515429210273	-67.65692997515275	-17.03425012138609	8.745358199517035	7.962022156263353	-775.3316883025075	51.64079075026921	1.331496237271609	0.2025977500365981	1.847848895738259	-5.599249932328589	0.2140493518278921	-0.3422635868870091	0.4227024762025975	-5.076802831636885	-5.076802831636874	1.020407630295776	0.0288712178985118	-1.001575787811656	-0.1054754737393646	2.470524961772674e-08	3.778418781249489e-08	1.411998725719626e-07	1.889116088687869e-07	-2.233140700480324e-08	-3.166045856870795e-08	3.242206312883226e-07
1.05	-0.2728510839737467	-0.008166373141547605	0.6357594086405198	1.454851386505326	-0.2376108412516955	-0.08869778125180741	-0.7851172752327994	1.498470495883326	1.498470495883325	-0.172962786323191	0.1732355156249759	0.4357223029422617	0.1768603769921161	0.1400114895179994	0.01604668059305031	0.1093444938774149	-0.3873398664370154	0.009340683393972492	-0.01653769332978681	0.01499439017741792	-0.2726700703145325	-0.2726700703145323	0.05856908600833337	0.001374615901128328	-0.0353179183866062	-0.0002213023659280847	-0.3647462029333794	0.05085400599246703	0.007949428429992593	-0.4310617686144718	-0.04710965619589306	-0.0006451649159209125	0.3774387174603199	-0.0411762436122169	-67.69906044795509	-17.01721383368825	8.712964630101821	7.861502435166059	-775.150713512681	51.65556738420082	1.292837783369885	0.210084013909846	1.831127410302397	-5.536362538910131	0.2063733918339804	-0.255774750109977	0.5273477772907614	-5.047109889776859	-5.047109889776818	1.111490945847515	0.02514278354063394	-1.006891963890812	-0.1249175567838893	2.888205740752072e-08	4.467062619827985e-08	1.670103623131819e-07	2.224386308316328e-07	-2.694423244220207e-08	-3.682215963553178e-08	3.804775971954864e-07
1.06	-0.2713863399140508	-0.007995239209140165	0.6369442544071033	1.450701346838362	-0.2375071632113571	-0.0888769811313543	-0.7849399347488768	1.495491501498349	1.495491501498349	-0.1723225318956645	0.173250685228081	0.4353187520113075	0.1768518392971149	0.1529043992472803	0.01819453602592166	0.127603009537533	-0.4426068727389938	0.01138591679005183	-0.01928207236608528	0.02061237068891355	-0.3231009234414459	-0.3231009234414454	0.06950719687861751	0.001664018046742145	-0.04539806367008776	-0.001506815698060397	-0.3645531624247013	0.05085015725583858	0.00811383531659662	-0.4303679879905937	-0.0473030203233964	-0.0006487776430480417	0.3776531905200519	-0.04121397924290966	-67.74846382880118	-16.99535998876962	8.672845204749422	7.756544829625716	-775.0988316314405	51.71112893724514	1.292057129089942	0.2198704316405257	1.821809681092139	-5.525751436684314	0.2034684584902983	-0.3178640859130991	0.5890993743342595	-5.043389493143596	-5.043389493143603	1.050842621571358	0.03500230486201314	-1.008522883372601	-0.1297502036054158	3.360260091947171e-08	5.1828775648066e-08	1.921475839746134e-07	2.598916007465995e-07	-3.112726038677518e-08	-4.194222429183116e-08	4.389998562982463e-07
1.07	-0.2697936339750826	-0.007802185085098769	0.6383109641205862	1.446000604294174	-0.237383320533349	-0.08908310028398812	-0.7847023353895439	1.492009110662077	1.492009110662079	-0.1715722122376745	0.173268924575528	0.4348141475042168	0.1768297599906375	0.1656031358044038	0.02043164307790697	0.1457100364118885	-0.4974650183409836	0.01337239326399483	-0.02192114698595136	0.02704120005819123	-0.3733412228809467	-0.3733412228809482	0.08058195633503308	0.001987483816257598	-0.05553631904282461	-0.002935578962915922	-0.3639763026883492	0.05082621026514897	0.008334931533239345	-0.4294395334032706	-0.04735353722936813	-0.0006785356204505111	0.377561940964228	-0.04126064290935361	-67.72655674681839	-16.97170508495534	8.631673771328714	7.63730729915155	-774.6271440268165	51.72422115062415	1.253745334192264	0.2279268700115731	1.80080519414848	-5.454342640432876	0.1947417977537643	-0.233812254958482	0.6898295502938476	-5.008954767137599	-5.008954767137891	1.139568643314308	0.03164255801238016	-1.018497661478194	-0.1533500389992742	3.835206654430339e-08	5.900137781402244e-08	2.172489935041413e-07	2.975533976802959e-07	-3.528742676258098e-08	-4.706007424544308e-08	4.976426097199209e-07
1.08	-0.2680749479875092	-0.007586300684930694	0.6398578753035208	1.44075358099027	-0.2372399121794196	-0.08931498680380755	-0.7843964367701043	1.488025395911854	1.488025395911855	-0.1707103897779903	0.1732905233496741	0.4342077562839477	0.176792610921297	0.1781004089682752	0.02276059125125743	0.1636433034278927	-0.5518630246820365	0.01529905197423548	-0.02443554580322173	0.03427222271024172	-0.4233657062318186	-0.4233657062318221	0.09180775721695403	0.00233590338641563	-0.06575540630571999	-0.004520768270717288	-0.3633994429519996	0.05080226327446161	0.008556027749866843	-0.4285110788159492	-0.04740405413533888	-0.000708293597847903	0.3774706914084019	-0.04131397310613502	-67.7119688229895	-16.94317159182117	8.582687794325572	7.513020251691448	-774.2866370165343	51.77807981113902	1.25176445043952	0.2382386559135617	1.787057709421882	-5.433723584496934	0.1915049057498282	-0.2929289253939561	0.7495380308888189	-5.000226275417793	-5.000226275417811	1.081050906672435	0.03999306499053003	-1.0246892614043	-0.1610354121945814	4.223546794091591e-08	6.453146835478977e-08	2.36137735231872e-07	3.290199787625391e-07	-3.818837996149791e-08	-5.103191615547422e-08	5.423425684798746e-07
